<svg xmlns="http://www.w3.org/2000/svg" width="14.541" height="13.329" viewBox="0 0 14.541 13.329"><defs><style>.a{fill:#0e908b;}</style></defs><g transform="translate(0 -21.333)"><g transform="translate(0 21.333)"><path class="a" d="M11.434,21.356a2.911,2.911,0,0,0-1.666.863L3.041,28.947A2.025,2.025,0,0,0,2.45,30.03a1.894,1.894,0,0,0,2.18,2.184,2.016,2.016,0,0,0,1.083-.589l6.138-6.138a.3.3,0,0,0,0-.428l-.428-.428a.3.3,0,0,0-.428,0l-6.2,6.2a.679.679,0,0,1-.961-.961L10.707,23a1.526,1.526,0,0,1,1.086-.45,1.551,1.551,0,0,1,1.1,2.625L5.734,32.581a2.742,2.742,0,0,1-1.616.85,2.6,2.6,0,0,1-2.9-2.821,2.7,2.7,0,0,1,.813-1.668L8.7,22.279a.3.3,0,0,0,0-.428l-.428-.428a.3.3,0,0,0-.428,0L1.112,28.15A3.808,3.808,0,1,0,6.526,33.5l7.242-7.492a2.762,2.762,0,0,0-2.334-4.656Z" transform="translate(0 -21.333)"/></g></g></svg>