<svg xmlns="http://www.w3.org/2000/svg" width="28.498" height="27.31" viewBox="0 0 28.498 27.31"><defs><style>.a{fill:#fff;}</style></defs><g transform="translate(0 0)"><path class="a" d="M8.75,17.612v5.507a.89.89,0,0,0,1.608.527l3.221-4.384Z" transform="translate(1.64 3.301)"/><path class="a" d="M28.124.165A.891.891,0,0,0,27.2.1L.479,14.053A.891.891,0,0,0,.6,15.686l7.427,2.539L23.847,4.7,11.607,19.446,24.054,23.7a.911.911,0,0,0,.287.047.89.89,0,0,0,.881-.759L28.488,1.022a.892.892,0,0,0-.365-.857Z" transform="translate(0 0)"/></g></svg>