<svg xmlns="http://www.w3.org/2000/svg" width="39.997" height="39.997" viewBox="0 0 39.997 39.997"><defs><style>.a{fill:#55acee;}.b{fill:#f1f2f2;}</style></defs><ellipse class="a" cx="19.998" cy="19.998" rx="19.998" ry="19.998" transform="translate(0 0)"/><g transform="translate(8.949 12.131)"><path class="b" d="M48.4,36.27a9.537,9.537,0,0,1-2.746.752,4.793,4.793,0,0,0,2.1-2.644,9.569,9.569,0,0,1-3.036,1.16A4.784,4.784,0,0,0,36.578,39.9a13.569,13.569,0,0,1-9.853-5A4.785,4.785,0,0,0,28.2,41.285a4.746,4.746,0,0,1-2.165-.6c0,.02,0,.041,0,.061a4.783,4.783,0,0,0,3.835,4.687,4.8,4.8,0,0,1-2.159.083,4.785,4.785,0,0,0,4.465,3.32A9.65,9.65,0,0,1,25.1,50.815,13.594,13.594,0,0,0,46.031,39.362q0-.311-.014-.618A9.694,9.694,0,0,0,48.4,36.27Z" transform="translate(-25.103 -34.028)"/></g></svg>